<svg xmlns="http://www.w3.org/2000/svg" width="96" height="96"><path fill-rule="evenodd" clip-rule="evenodd" d="M48.002 20.567c-3.598 3.216-5.497 6.851-7.948 10.036-.306.394-.293 1.088-.648 1.38-1.239 1.011-2.377 3.597-3.873 2.487-1.653-1.234.851-2.54 1.478-3.842 2.475-5.12 6.556-9.105 9.662-13.775.361-.543 1.227-1.089 1.162-1.524-.378-2.354.814-3.686 2.848-3.836 2.053-.15 2.639 1.939 3.353 3.406 2.735 5.623 5.38 11.292 7.994 16.973.447.971 1.644 2.329.094 3.067-1.331.633-2.054-.986-2.559-1.895a85.739 85.739 0 0 0-7.148-10.811c-.378-.487-.72-1.12-2.158-.999-.043 7.489-.187 15.025-.1 22.558.112 10.242-.359 20.457-.947 30.678-.143 2.536.507 4.962.582 7.442.024.818.657 2.165-.617 2.351-1.543.211-1.408-1.438-1.411-2.276.003-6.047.175-12.088.25-18.135.161-13.012.312-26.021.428-39.033.01-1.16-.234-2.326-.442-4.252z"/></svg>