<svg xmlns="http://www.w3.org/2000/svg" width="48" height="48"><path d="M40.549 24.493c.142.75-.314 1.58-.728 1.728-.665.237-1.893.066-2.864.045-1.921-.042-3.529.274-5.501.318a311.42 311.42 0 0 1-6.819.091c-1.75 0-3.321.086-4.956.137-.598.019-1.24.074-1.772 0-.286-.041-.582-.245-.909-.273-1.201-.106-2.612.184-4.001.136-.532-.019-1.028-.194-1.5-.182-.616.017-1.52.324-2.318.182-.309-.055-.735-.241-1-.363-.92-.426-.72-1.383-.045-1.955.57-.485 1.049-.947 2.137-1.045.445-.04.975.083 1.455.045.528-.042 1.026-.133 1.591-.136.506-.004 1.021-.049 1.546-.045 1.356.008 2.627-.122 3.637.182 1.139.013 2.292.125 3.773.045.744-.04 1.507.063 2.228.045.354-.007.717-.117 1.091-.136.707-.036 1.361-.085 2.046-.136.701-.053 1.417.068 2.045 0 .214-.023.43-.114.636-.136 1.175-.125 2.389.123 3.501.045.845-.059 1.503-.275 2.409-.182.229.023.468.159.728.182.831.076 1.593-.097 2.228.136.371.136 1.28.841 1.362 1.272zM40.321 15.72c.316.491.524 1.021 0 1.546-.293.293-1.218.457-1.773.545-.655.104-1.408.119-2.091.136-.943.022-1.731-.089-2.591 0-.585.061-1.294-.001-2 0-.663.002-1.374.089-1.955 0-.402-.061-.805-.259-1.228-.272-1.55-.051-3.239.049-4.91.182-1.145.091-2.396 0-3.591 0-1.237 0-2.485.085-3.501 0-.259-.021-.485-.127-.727-.136-.676-.025-1.41.127-2.136.136-.718.009-1.453-.087-2.091-.045-.385.024-.833.187-1.182.182-.235-.004-.576-.146-.909-.182-.422-.045-.83.011-1.091-.045-.487-.104-1.032-.578-1.137-.91-.163-.521.104-1.457.409-1.727.608-.538 2.419-.536 3.5-.409 1.843.216 3.567-.097 5.592-.273.335-.028.595.063.909.045.554-.03 1.25-.238 1.818-.182.231.023.445.155.682.182.576.066 1.284-.045 1.955-.045 1.678 0 3.212-.127 4.909-.136 2.198-.011 4.584.059 6.865.045.494-.003.958-.129 1.455-.182.805-.087 1.646.026 2.5-.045 1.071-.092 1.829.827 2.319 1.59zM39.685 32.631c.406.386.544 1.28.318 1.819-.674 1.61-4.997.806-7.137.909-.307.015-.597.153-.909.182-.515.047-1.07-.004-1.637.045-.513.045-1.034.091-1.545.091-1.146 0-2.389.087-3.318.045-.383-.017-.731-.14-1.091-.182-1.792-.203-3.616.04-5.228.227-.934.108-1.681.159-2.456.045-.28-.042-.524-.195-.818-.227-1.114-.124-2.419.378-3.637-.045-1.511.327-4.017.081-4.182-1.319-.291-2.479 3.404-1.873 5.501-2.273.064-.013.083-.042.136-.045 1.731-.14 4.082.023 5.773.136 1.893.127 3.856 0 5.774 0 .947 0 1.89.014 2.818 0 .924-.013 1.822-.104 2.728-.136 1.606-.055 3.163.136 4.955.136.555 0 1.106-.1 1.637-.091.535.012 1.977.359 2.318.683z"/></svg>